<mxfile host="app.diagrams.net" modified="2023-05-18T19:20:14.951Z" agent="Mozilla/5.0 (Windows NT 10.0; Win64; x64; rv:109.0) Gecko/20100101 Firefox/112.0" etag="NMn5jQ_gEtQUtzTld_4Q" version="21.3.2" type="device">
  <diagram name="Page-1" id="OWIXLrs5u4kE0KEv1cTQ">
    <mxGraphModel dx="1434" dy="782" grid="1" gridSize="10" guides="1" tooltips="1" connect="1" arrows="1" fold="1" page="1" pageScale="1" pageWidth="827" pageHeight="1169" math="0" shadow="0">
      <root>
        <mxCell id="0" />
        <mxCell id="1" parent="0" />
        <mxCell id="EXfKpraqjGH-dcVmtgwj-1" value="&lt;div&gt;User&lt;/div&gt;" style="rounded=0;whiteSpace=wrap;html=1;" vertex="1" parent="1">
          <mxGeometry x="120" y="160" width="120" height="60" as="geometry" />
        </mxCell>
        <mxCell id="EXfKpraqjGH-dcVmtgwj-2" value="Game" style="rounded=0;whiteSpace=wrap;html=1;" vertex="1" parent="1">
          <mxGeometry x="320" y="160" width="120" height="60" as="geometry" />
        </mxCell>
        <mxCell id="EXfKpraqjGH-dcVmtgwj-3" value="&lt;div&gt;Dictionary File&lt;/div&gt;" style="rounded=0;whiteSpace=wrap;html=1;" vertex="1" parent="1">
          <mxGeometry x="520" y="160" width="120" height="60" as="geometry" />
        </mxCell>
        <mxCell id="EXfKpraqjGH-dcVmtgwj-4" value="" style="endArrow=none;dashed=1;html=1;rounded=0;entryX=0.5;entryY=1;entryDx=0;entryDy=0;" edge="1" parent="1" source="EXfKpraqjGH-dcVmtgwj-19" target="EXfKpraqjGH-dcVmtgwj-1">
          <mxGeometry width="50" height="50" relative="1" as="geometry">
            <mxPoint x="180" y="520" as="sourcePoint" />
            <mxPoint x="440" y="340" as="targetPoint" />
            <Array as="points" />
          </mxGeometry>
        </mxCell>
        <mxCell id="EXfKpraqjGH-dcVmtgwj-5" value="" style="endArrow=none;dashed=1;html=1;rounded=0;entryX=0.5;entryY=1;entryDx=0;entryDy=0;" edge="1" parent="1" source="EXfKpraqjGH-dcVmtgwj-10">
          <mxGeometry width="50" height="50" relative="1" as="geometry">
            <mxPoint x="379.5" y="520" as="sourcePoint" />
            <mxPoint x="379.5" y="220" as="targetPoint" />
          </mxGeometry>
        </mxCell>
        <mxCell id="EXfKpraqjGH-dcVmtgwj-6" value="" style="endArrow=none;dashed=1;html=1;rounded=0;entryX=0.5;entryY=1;entryDx=0;entryDy=0;" edge="1" parent="1">
          <mxGeometry width="50" height="50" relative="1" as="geometry">
            <mxPoint x="580" y="720" as="sourcePoint" />
            <mxPoint x="579.5" y="220" as="targetPoint" />
          </mxGeometry>
        </mxCell>
        <mxCell id="EXfKpraqjGH-dcVmtgwj-8" value="1. Open Application" style="endArrow=classic;html=1;rounded=0;entryX=0;entryY=0;entryDx=0;entryDy=0;" edge="1" parent="1" target="EXfKpraqjGH-dcVmtgwj-10">
          <mxGeometry x="-0.1" y="10" width="50" height="50" relative="1" as="geometry">
            <mxPoint x="180" y="260" as="sourcePoint" />
            <mxPoint x="360" y="260" as="targetPoint" />
            <mxPoint as="offset" />
          </mxGeometry>
        </mxCell>
        <mxCell id="EXfKpraqjGH-dcVmtgwj-11" value="" style="endArrow=none;dashed=1;html=1;rounded=0;entryX=0.5;entryY=1;entryDx=0;entryDy=0;" edge="1" parent="1" source="EXfKpraqjGH-dcVmtgwj-16" target="EXfKpraqjGH-dcVmtgwj-10">
          <mxGeometry width="50" height="50" relative="1" as="geometry">
            <mxPoint x="379.5" y="520" as="sourcePoint" />
            <mxPoint x="379.5" y="220" as="targetPoint" />
          </mxGeometry>
        </mxCell>
        <mxCell id="EXfKpraqjGH-dcVmtgwj-10" value="" style="rounded=1;whiteSpace=wrap;html=1;" vertex="1" parent="1">
          <mxGeometry x="365" y="260" width="30" height="40" as="geometry" />
        </mxCell>
        <mxCell id="EXfKpraqjGH-dcVmtgwj-14" value="2 : Display Menu" style="text;html=1;strokeColor=none;fillColor=none;align=center;verticalAlign=middle;whiteSpace=wrap;rounded=0;fontSize=11;" vertex="1" parent="1">
          <mxGeometry x="260" y="290" width="100" height="30" as="geometry" />
        </mxCell>
        <mxCell id="EXfKpraqjGH-dcVmtgwj-15" value="" style="curved=1;endArrow=classic;html=1;rounded=0;exitX=1;exitY=0.5;exitDx=0;exitDy=0;" edge="1" parent="1" source="EXfKpraqjGH-dcVmtgwj-10">
          <mxGeometry width="50" height="50" relative="1" as="geometry">
            <mxPoint x="420" y="290" as="sourcePoint" />
            <mxPoint x="395" y="330" as="targetPoint" />
            <Array as="points">
              <mxPoint x="440" y="280" />
              <mxPoint x="440" y="330" />
            </Array>
          </mxGeometry>
        </mxCell>
        <mxCell id="EXfKpraqjGH-dcVmtgwj-18" value="" style="endArrow=none;dashed=1;html=1;rounded=0;entryX=0.5;entryY=1;entryDx=0;entryDy=0;" edge="1" parent="1" source="EXfKpraqjGH-dcVmtgwj-25" target="EXfKpraqjGH-dcVmtgwj-16">
          <mxGeometry width="50" height="50" relative="1" as="geometry">
            <mxPoint x="379.5" y="520" as="sourcePoint" />
            <mxPoint x="380" y="300" as="targetPoint" />
          </mxGeometry>
        </mxCell>
        <mxCell id="EXfKpraqjGH-dcVmtgwj-16" value="" style="rounded=1;whiteSpace=wrap;html=1;" vertex="1" parent="1">
          <mxGeometry x="365" y="310" width="30" height="40" as="geometry" />
        </mxCell>
        <mxCell id="EXfKpraqjGH-dcVmtgwj-21" value="" style="endArrow=none;dashed=1;html=1;rounded=0;entryX=0.5;entryY=1;entryDx=0;entryDy=0;" edge="1" parent="1" source="EXfKpraqjGH-dcVmtgwj-32" target="EXfKpraqjGH-dcVmtgwj-19">
          <mxGeometry width="50" height="50" relative="1" as="geometry">
            <mxPoint x="180" y="640" as="sourcePoint" />
            <mxPoint x="180" y="220" as="targetPoint" />
            <Array as="points">
              <mxPoint x="180" y="300" />
            </Array>
          </mxGeometry>
        </mxCell>
        <mxCell id="EXfKpraqjGH-dcVmtgwj-19" value="" style="rounded=1;whiteSpace=wrap;html=1;" vertex="1" parent="1">
          <mxGeometry x="165" y="350" width="30" height="40" as="geometry" />
        </mxCell>
        <mxCell id="EXfKpraqjGH-dcVmtgwj-22" value="3. Choose Play" style="endArrow=classic;html=1;rounded=0;entryX=1;entryY=0;entryDx=0;entryDy=0;exitX=0;exitY=1;exitDx=0;exitDy=0;" edge="1" parent="1" source="EXfKpraqjGH-dcVmtgwj-16" target="EXfKpraqjGH-dcVmtgwj-19">
          <mxGeometry y="-10" width="50" height="50" relative="1" as="geometry">
            <mxPoint x="390" y="390" as="sourcePoint" />
            <mxPoint x="440" y="340" as="targetPoint" />
            <mxPoint as="offset" />
          </mxGeometry>
        </mxCell>
        <mxCell id="EXfKpraqjGH-dcVmtgwj-24" value="4. Choose Difficulty" style="endArrow=classic;html=1;rounded=0;entryX=0;entryY=0;entryDx=0;entryDy=0;" edge="1" parent="1" target="EXfKpraqjGH-dcVmtgwj-25">
          <mxGeometry x="-0.1" y="10" width="50" height="50" relative="1" as="geometry">
            <mxPoint x="195" y="390" as="sourcePoint" />
            <mxPoint x="360" y="390" as="targetPoint" />
            <mxPoint as="offset" />
          </mxGeometry>
        </mxCell>
        <mxCell id="EXfKpraqjGH-dcVmtgwj-26" value="" style="endArrow=none;dashed=1;html=1;rounded=0;entryX=0.5;entryY=1;entryDx=0;entryDy=0;" edge="1" parent="1" target="EXfKpraqjGH-dcVmtgwj-25">
          <mxGeometry width="50" height="50" relative="1" as="geometry">
            <mxPoint x="380" y="720" as="sourcePoint" />
            <mxPoint x="380" y="350" as="targetPoint" />
          </mxGeometry>
        </mxCell>
        <mxCell id="EXfKpraqjGH-dcVmtgwj-25" value="" style="rounded=1;whiteSpace=wrap;html=1;" vertex="1" parent="1">
          <mxGeometry x="365" y="390" width="30" height="40" as="geometry" />
        </mxCell>
        <mxCell id="EXfKpraqjGH-dcVmtgwj-27" value="5. Retrieve Word List" style="endArrow=classic;html=1;rounded=0;entryX=0;entryY=0.25;entryDx=0;entryDy=0;" edge="1" target="EXfKpraqjGH-dcVmtgwj-28" parent="1">
          <mxGeometry x="-0.1" y="10" width="50" height="50" relative="1" as="geometry">
            <mxPoint x="380" y="430" as="sourcePoint" />
            <mxPoint x="530" y="430" as="targetPoint" />
            <mxPoint as="offset" />
          </mxGeometry>
        </mxCell>
        <mxCell id="EXfKpraqjGH-dcVmtgwj-28" value="" style="rounded=1;whiteSpace=wrap;html=1;" vertex="1" parent="1">
          <mxGeometry x="550" y="420" width="30" height="40" as="geometry" />
        </mxCell>
        <mxCell id="EXfKpraqjGH-dcVmtgwj-29" value="&lt;div&gt;6. Word List&lt;/div&gt;" style="html=1;verticalAlign=bottom;endArrow=open;dashed=1;endSize=8;edgeStyle=elbowEdgeStyle;elbow=vertical;curved=0;rounded=0;exitX=0;exitY=0.75;exitDx=0;exitDy=0;" edge="1" parent="1" source="EXfKpraqjGH-dcVmtgwj-28">
          <mxGeometry y="20" relative="1" as="geometry">
            <mxPoint x="520" y="450" as="sourcePoint" />
            <mxPoint x="380" y="450" as="targetPoint" />
            <mxPoint as="offset" />
          </mxGeometry>
        </mxCell>
        <mxCell id="EXfKpraqjGH-dcVmtgwj-31" value="&lt;div&gt;7. Display Word&lt;/div&gt;" style="endArrow=classic;html=1;rounded=0;entryX=1;entryY=0;entryDx=0;entryDy=0;exitX=0;exitY=1;exitDx=0;exitDy=0;" edge="1" parent="1" target="EXfKpraqjGH-dcVmtgwj-32">
          <mxGeometry y="-10" width="50" height="50" relative="1" as="geometry">
            <mxPoint x="380" y="450" as="sourcePoint" />
            <mxPoint x="210" y="450" as="targetPoint" />
            <mxPoint as="offset" />
          </mxGeometry>
        </mxCell>
        <mxCell id="EXfKpraqjGH-dcVmtgwj-33" value="" style="endArrow=none;dashed=1;html=1;rounded=0;entryX=0.5;entryY=1;entryDx=0;entryDy=0;" edge="1" parent="1" target="EXfKpraqjGH-dcVmtgwj-32">
          <mxGeometry width="50" height="50" relative="1" as="geometry">
            <mxPoint x="180" y="720" as="sourcePoint" />
            <mxPoint x="180" y="390" as="targetPoint" />
            <Array as="points" />
          </mxGeometry>
        </mxCell>
        <mxCell id="EXfKpraqjGH-dcVmtgwj-32" value="" style="rounded=1;whiteSpace=wrap;html=1;" vertex="1" parent="1">
          <mxGeometry x="165" y="450" width="30" height="40" as="geometry" />
        </mxCell>
        <mxCell id="EXfKpraqjGH-dcVmtgwj-34" value="&lt;div&gt;8. Select Letter&lt;/div&gt;" style="endArrow=classic;html=1;rounded=0;entryX=0;entryY=0;entryDx=0;entryDy=0;" edge="1" parent="1" target="EXfKpraqjGH-dcVmtgwj-35">
          <mxGeometry x="-0.1" y="10" width="50" height="50" relative="1" as="geometry">
            <mxPoint x="185" y="490" as="sourcePoint" />
            <mxPoint x="360" y="490" as="targetPoint" />
            <mxPoint as="offset" />
          </mxGeometry>
        </mxCell>
        <mxCell id="EXfKpraqjGH-dcVmtgwj-35" value="" style="rounded=1;whiteSpace=wrap;html=1;" vertex="1" parent="1">
          <mxGeometry x="365" y="490" width="30" height="40" as="geometry" />
        </mxCell>
        <mxCell id="EXfKpraqjGH-dcVmtgwj-36" value="" style="curved=1;endArrow=classic;html=1;rounded=0;exitX=1;exitY=0.5;exitDx=0;exitDy=0;" edge="1" source="EXfKpraqjGH-dcVmtgwj-35" parent="1">
          <mxGeometry width="50" height="50" relative="1" as="geometry">
            <mxPoint x="420" y="520" as="sourcePoint" />
            <mxPoint x="395" y="560" as="targetPoint" />
            <Array as="points">
              <mxPoint x="440" y="510" />
              <mxPoint x="440" y="560" />
            </Array>
          </mxGeometry>
        </mxCell>
        <mxCell id="EXfKpraqjGH-dcVmtgwj-37" value="" style="rounded=1;whiteSpace=wrap;html=1;" vertex="1" parent="1">
          <mxGeometry x="365" y="540" width="30" height="40" as="geometry" />
        </mxCell>
        <mxCell id="EXfKpraqjGH-dcVmtgwj-38" value="9 : Check Letter" style="text;html=1;strokeColor=none;fillColor=none;align=center;verticalAlign=middle;whiteSpace=wrap;rounded=0;fontSize=11;" vertex="1" parent="1">
          <mxGeometry x="260" y="520" width="100" height="30" as="geometry" />
        </mxCell>
        <mxCell id="EXfKpraqjGH-dcVmtgwj-39" value="" style="rounded=1;whiteSpace=wrap;html=1;" vertex="1" parent="1">
          <mxGeometry x="165" y="580" width="30" height="40" as="geometry" />
        </mxCell>
        <mxCell id="EXfKpraqjGH-dcVmtgwj-40" value="10. Display Result" style="endArrow=classic;html=1;rounded=0;entryX=1;entryY=0;entryDx=0;entryDy=0;exitX=0;exitY=1;exitDx=0;exitDy=0;" edge="1" target="EXfKpraqjGH-dcVmtgwj-39" parent="1" source="EXfKpraqjGH-dcVmtgwj-37">
          <mxGeometry y="-10" width="50" height="50" relative="1" as="geometry">
            <mxPoint x="360" y="580" as="sourcePoint" />
            <mxPoint x="210" y="580" as="targetPoint" />
            <mxPoint as="offset" />
          </mxGeometry>
        </mxCell>
        <mxCell id="EXfKpraqjGH-dcVmtgwj-41" value="11. Finish Game" style="endArrow=classic;html=1;rounded=0;entryX=0;entryY=0;entryDx=0;entryDy=0;" edge="1" parent="1">
          <mxGeometry x="-0.1" y="10" width="50" height="50" relative="1" as="geometry">
            <mxPoint x="185" y="620" as="sourcePoint" />
            <mxPoint x="365" y="620" as="targetPoint" />
            <mxPoint as="offset" />
          </mxGeometry>
        </mxCell>
        <mxCell id="EXfKpraqjGH-dcVmtgwj-44" value="" style="endArrow=none;dashed=1;html=1;rounded=0;entryX=0.5;entryY=1;entryDx=0;entryDy=0;" edge="1" parent="1" target="EXfKpraqjGH-dcVmtgwj-42">
          <mxGeometry width="50" height="50" relative="1" as="geometry">
            <mxPoint x="380" y="640" as="sourcePoint" />
            <mxPoint x="380" y="430" as="targetPoint" />
          </mxGeometry>
        </mxCell>
        <mxCell id="EXfKpraqjGH-dcVmtgwj-42" value="" style="rounded=1;whiteSpace=wrap;html=1;" vertex="1" parent="1">
          <mxGeometry x="365" y="620" width="30" height="40" as="geometry" />
        </mxCell>
        <mxCell id="EXfKpraqjGH-dcVmtgwj-45" value="12. Display End Screen" style="endArrow=classic;html=1;rounded=0;entryX=1;entryY=0;entryDx=0;entryDy=0;exitX=0;exitY=1;exitDx=0;exitDy=0;" edge="1" target="EXfKpraqjGH-dcVmtgwj-46" parent="1">
          <mxGeometry y="-10" width="50" height="50" relative="1" as="geometry">
            <mxPoint x="365" y="660" as="sourcePoint" />
            <mxPoint x="210" y="660" as="targetPoint" />
            <mxPoint as="offset" />
          </mxGeometry>
        </mxCell>
        <mxCell id="EXfKpraqjGH-dcVmtgwj-46" value="" style="rounded=1;whiteSpace=wrap;html=1;" vertex="1" parent="1">
          <mxGeometry x="165" y="660" width="30" height="40" as="geometry" />
        </mxCell>
      </root>
    </mxGraphModel>
  </diagram>
</mxfile>
